<svg width="48" height="48" viewBox="0 0 48 48" fill="none" xmlns="http://www.w3.org/2000/svg">
<g clip-path="url(#clip0_108_436)">
<path d="M42.4016 27.7082H6.59952C6.44052 27.7082 6.28802 27.6426 6.17558 27.5257C6.06315 27.4089 6 27.2504 6 27.0852C6 26.9199 6.06315 26.7615 6.17558 26.6446C6.28802 26.5278 6.44052 26.4622 6.59952 26.4622H42.4016C42.5606 26.4622 42.7131 26.5278 42.8255 26.6446C42.938 26.7615 43.0011 26.9199 43.0011 27.0852C43.0011 27.2504 42.938 27.4089 42.8255 27.5257C42.7131 27.6426 42.5606 27.7082 42.4016 27.7082Z" fill="black"/>
<path d="M42.4016 32.259H6.59946C6.51861 32.2626 6.43788 32.2492 6.36215 32.2196C6.28642 32.19 6.21724 32.1447 6.15879 32.0865C6.10033 32.0284 6.05383 31.9585 6.02205 31.8812C5.99027 31.8038 5.97388 31.7206 5.97388 31.6365C5.97388 31.5524 5.99027 31.4692 6.02205 31.3918C6.05383 31.3145 6.10033 31.2447 6.15879 31.1865C6.21724 31.1283 6.28642 31.0831 6.36215 31.0534C6.43788 31.0238 6.51861 31.0104 6.59946 31.0141H42.4016C42.5559 31.0211 42.7017 31.0897 42.8085 31.2056C42.9154 31.3216 42.975 31.476 42.975 31.6365C42.975 31.7971 42.9154 31.9514 42.8085 32.0674C42.7017 32.1833 42.5559 32.252 42.4016 32.259Z" fill="black"/>
<path d="M11.0682 38.3467C10.6578 38.3467 10.2566 38.2202 9.91538 37.9833C9.57414 37.7463 9.30818 37.4095 9.15112 37.0155C8.99407 36.6215 8.95297 36.1879 9.03304 35.7696C9.1131 35.3513 9.31073 34.967 9.60093 34.6654C9.89114 34.3638 10.2609 34.1585 10.6634 34.0753C11.066 33.992 11.4832 34.0347 11.8623 34.198C12.2415 34.3612 12.5656 34.6376 12.7936 34.9922C13.0216 35.3468 13.1433 35.7638 13.1433 36.1903C13.1421 36.7618 12.9231 37.3096 12.5342 37.7137C12.1453 38.1179 11.6182 38.3455 11.0682 38.3467ZM11.0682 35.2846C10.895 35.2846 10.7256 35.338 10.5815 35.438C10.4375 35.538 10.3252 35.6802 10.2589 35.8466C10.1926 36.0129 10.1752 36.196 10.209 36.3726C10.2428 36.5492 10.3263 36.7114 10.4488 36.8387C10.5713 36.966 10.7274 37.0528 10.8973 37.0879C11.0673 37.123 11.2434 37.105 11.4035 37.0361C11.5636 36.9672 11.7004 36.8505 11.7966 36.7008C11.8929 36.551 11.9443 36.375 11.9443 36.195C11.9447 36.0751 11.9224 35.9562 11.8786 35.8453C11.8348 35.7344 11.7703 35.6335 11.689 35.5485C11.6076 35.4635 11.5109 35.396 11.4044 35.3499C11.2978 35.3038 11.1836 35.28 11.0682 35.2799V35.2846Z" fill="black"/>
<path d="M20.0236 38.3467C19.6132 38.3467 19.2119 38.2202 18.8707 37.9833C18.5295 37.7463 18.2635 37.4095 18.1064 37.0155C17.9494 36.6215 17.9083 36.1879 17.9884 35.7696C18.0684 35.3513 18.266 34.967 18.5563 34.6654C18.8465 34.3638 19.2162 34.1585 19.6187 34.0753C20.0212 33.992 20.4385 34.0347 20.8177 34.198C21.1968 34.3612 21.5209 34.6376 21.7489 34.9922C21.9769 35.3468 22.0986 35.7638 22.0986 36.1903C22.0977 36.7619 21.8788 37.3099 21.4899 37.7141C21.1009 38.1183 20.5736 38.3458 20.0236 38.3467ZM20.0236 35.2846C19.8504 35.2848 19.6811 35.3384 19.5372 35.4386C19.3932 35.5388 19.2811 35.681 19.215 35.8474C19.1489 36.0138 19.1317 36.1968 19.1656 36.3733C19.1996 36.5498 19.2831 36.7119 19.4056 36.8391C19.5282 36.9663 19.6843 37.0529 19.8542 37.088C20.0241 37.123 20.2002 37.1049 20.3602 37.036C20.5202 36.967 20.657 36.8503 20.7532 36.7006C20.8494 36.551 20.9007 36.375 20.9007 36.195C20.9012 36.075 20.8788 35.956 20.8349 35.845C20.7911 35.734 20.7265 35.6331 20.645 35.5481C20.5635 35.4631 20.4667 35.3956 20.36 35.3496C20.2534 35.3036 20.139 35.2799 20.0236 35.2799V35.2846Z" fill="black"/>
<path d="M28.9778 38.3467C28.5674 38.3465 28.1663 38.2198 27.8252 37.9827C27.4841 37.7456 27.2183 37.4087 27.0614 37.0147C26.9046 36.6206 26.8636 36.1871 26.9438 35.7688C27.024 35.3506 27.2217 34.9665 27.512 34.665C27.8022 34.3635 28.172 34.1583 28.5745 34.0752C28.977 33.9921 29.3941 34.0348 29.7733 34.1981C30.1524 34.3613 30.4764 34.6377 30.7043 34.9923C30.9323 35.3469 31.0539 35.7638 31.0539 36.1903C31.0533 36.7622 30.8344 37.3105 30.4451 37.7148C30.0559 38.1191 29.5281 38.3464 28.9778 38.3467ZM28.9778 35.2846C28.8046 35.285 28.6354 35.3388 28.4917 35.4392C28.3479 35.5395 28.236 35.6818 28.17 35.8482C28.104 36.0146 28.087 36.1976 28.1211 36.374C28.1551 36.5505 28.2388 36.7125 28.3614 36.8395C28.484 36.9666 28.6401 37.0531 28.8099 37.0881C28.9798 37.123 29.1558 37.1048 29.3158 37.0358C29.4757 36.9669 29.6124 36.8502 29.7086 36.7005C29.8047 36.5509 29.8561 36.3749 29.8561 36.195C29.8565 36.0749 29.8341 35.9559 29.7902 35.8448C29.7462 35.7337 29.6816 35.6327 29.5999 35.5477C29.5183 35.4627 29.4213 35.3952 29.3146 35.3493C29.2078 35.3033 29.0933 35.2797 28.9778 35.2799V35.2846Z" fill="black"/>
<path d="M37.9341 38.3467C37.5237 38.3469 37.1224 38.2207 36.781 37.9839C36.4396 37.747 36.1734 37.4103 36.0162 37.0163C35.859 36.6223 35.8177 36.1887 35.8976 35.7703C35.9776 35.3519 36.1751 34.9675 36.4653 34.6658C36.7554 34.3641 37.1252 34.1586 37.5277 34.0753C37.9303 33.992 38.3476 34.0347 38.7268 34.1979C39.1061 34.361 39.4302 34.6374 39.6583 34.9921C39.8863 35.3467 40.008 35.7637 40.008 36.1903C40.0074 36.7618 39.7888 37.3098 39.4 37.714C39.0113 38.1182 38.4841 38.3458 37.9341 38.3467ZM37.9341 35.2846C37.7609 35.2846 37.5915 35.338 37.4474 35.438C37.3033 35.538 37.1911 35.6802 37.1248 35.8466C37.0585 36.0129 37.0411 36.196 37.0749 36.3726C37.1087 36.5492 37.1921 36.7114 37.3147 36.8387C37.4372 36.966 37.5933 37.0527 37.7632 37.0879C37.9332 37.123 38.1093 37.105 38.2694 37.0361C38.4294 36.9672 38.5663 36.8505 38.6625 36.7008C38.7588 36.551 38.8102 36.375 38.8102 36.195C38.8106 36.0751 38.7883 35.9562 38.7445 35.8453C38.7007 35.7344 38.6362 35.6335 38.5548 35.5485C38.4735 35.4635 38.3768 35.396 38.2702 35.3499C38.1637 35.3038 38.0495 35.28 37.9341 35.2799V35.2846Z" fill="black"/>
<path d="M15.5459 43.0012C15.1352 43.0014 14.7336 42.8751 14.392 42.6381C14.0505 42.4012 13.7842 42.0643 13.6269 41.67C13.4696 41.2758 13.4283 40.8419 13.5083 40.4233C13.5882 40.0047 13.7859 39.6202 14.0762 39.3183C14.3665 39.0164 14.7365 38.8108 15.1392 38.7275C15.542 38.6441 15.9595 38.6868 16.339 38.85C16.7184 39.0133 17.0427 39.2899 17.2709 39.6447C17.4991 39.9996 17.6209 40.4168 17.6209 40.8435C17.6197 41.4152 17.4008 41.9631 17.0119 42.3674C16.623 42.7718 16.0959 42.9996 15.5459 43.0012ZM15.5459 39.9331C15.3723 39.9329 15.2025 39.9862 15.0581 40.0863C14.9137 40.1864 14.8011 40.3287 14.7345 40.4953C14.668 40.6619 14.6505 40.8453 14.6843 41.0223C14.7181 41.1992 14.8017 41.3617 14.9244 41.4893C15.0472 41.6169 15.2036 41.7037 15.3739 41.7388C15.5441 41.774 15.7206 41.7558 15.8809 41.6867C16.0412 41.6175 16.1782 41.5005 16.2745 41.3504C16.3708 41.2003 16.4221 41.0239 16.4219 40.8435C16.4216 40.6022 16.3292 40.3708 16.165 40.2001C16.0007 40.0295 15.7781 39.9335 15.5459 39.9331Z" fill="black"/>
<path d="M24.5 43.0012C24.0894 43.0012 23.688 42.8746 23.3466 42.6375C23.0051 42.4005 22.739 42.0635 22.5819 41.6692C22.4247 41.275 22.3836 40.8411 22.4637 40.4226C22.5438 40.0041 22.7416 39.6196 23.0319 39.3179C23.3223 39.0161 23.6922 38.8106 24.095 38.7274C24.4977 38.6441 24.9152 38.6869 25.2946 38.8502C25.6739 39.0135 25.9982 39.29 26.2263 39.6448C26.4545 39.9997 26.5763 40.4168 26.5763 40.8435C26.5757 41.4156 26.3567 41.964 25.9675 42.3685C25.5782 42.773 25.0505 43.0005 24.5 43.0012ZM24.5 39.9331C24.3266 39.9334 24.157 39.9871 24.0129 40.0874C23.8688 40.1878 23.7565 40.3303 23.6903 40.497C23.6241 40.6636 23.607 40.8469 23.6411 41.0237C23.6751 41.2005 23.7589 41.3628 23.8817 41.4901C24.0045 41.6175 24.161 41.7041 24.3312 41.739C24.5014 41.774 24.6777 41.7557 24.8379 41.6865C24.9981 41.6172 25.135 41.5002 25.2312 41.3502C25.3274 41.2001 25.3786 41.0238 25.3783 40.8435C25.3782 40.7238 25.3554 40.6053 25.3111 40.4948C25.2669 40.3842 25.2022 40.2838 25.1206 40.1993C25.0391 40.1148 24.9423 40.0478 24.8358 40.0021C24.7293 39.9564 24.6152 39.933 24.5 39.9331Z" fill="black"/>
<path d="M33.4553 43.0012C33.0446 43.0014 32.6431 42.8751 32.3015 42.6381C31.9599 42.4012 31.6936 42.0643 31.5363 41.67C31.379 41.2758 31.3377 40.8419 31.4177 40.4233C31.4977 40.0047 31.6953 39.6202 31.9856 39.3183C32.276 39.0164 32.6459 38.8108 33.0487 38.7275C33.4514 38.6441 33.8689 38.6868 34.2484 38.85C34.6278 39.0133 34.9522 39.2899 35.1803 39.6447C35.4085 39.9996 35.5303 40.4168 35.5303 40.8435C35.5297 41.4154 35.311 41.9636 34.922 42.3681C34.533 42.7726 34.0055 43.0002 33.4553 43.0012ZM33.4553 39.9331C33.2817 39.9331 33.1121 39.9866 32.9678 40.0869C32.8235 40.1871 32.7111 40.3295 32.6448 40.4962C32.5784 40.6628 32.5611 40.8461 32.595 41.023C32.629 41.1999 32.7126 41.3623 32.8354 41.4897C32.9582 41.6172 33.1146 41.7039 33.2848 41.7389C33.4551 41.774 33.6315 41.7557 33.7917 41.6866C33.952 41.6174 34.0889 41.5004 34.1852 41.3503C34.2814 41.2002 34.3327 41.0239 34.3324 40.8435C34.3321 40.602 34.2396 40.3704 34.0751 40.1997C33.9107 40.029 33.6877 39.9331 33.4553 39.9331Z" fill="black"/>
<path d="M25.8044 25.0594H23.1978C22.8628 25.0591 22.5415 24.9206 22.3046 24.6744C22.0677 24.4282 21.9345 24.0944 21.9342 23.7462V21.4543H19.7299C19.5633 21.4551 19.3983 21.4217 19.2442 21.356C19.09 21.2903 18.95 21.1936 18.8319 21.0714C18.7139 20.9493 18.6202 20.8042 18.5563 20.6443C18.4924 20.4845 18.4595 20.3131 18.4595 20.14V17.4312C18.4598 17.0827 18.5931 16.7485 18.8303 16.5021C19.0674 16.2557 19.3889 16.1171 19.7242 16.1168H21.9285V13.8226C21.9288 13.4741 22.0622 13.1399 22.2993 12.8935C22.5364 12.6471 22.8579 12.5085 23.1933 12.5082H25.7999C25.9665 12.5076 26.1316 12.5411 26.2858 12.6068C26.4399 12.6725 26.5801 12.7692 26.6983 12.8913C26.8165 13.0133 26.9104 13.1584 26.9746 13.3182C27.0388 13.478 27.0721 13.6494 27.0726 13.8226V16.1133H29.2757C29.611 16.1139 29.9325 16.2525 30.1698 16.4988C30.407 16.7452 30.5407 17.0791 30.5416 17.4276V20.1364C30.5413 20.4846 30.4081 20.8184 30.1712 21.0646C29.9342 21.3109 29.613 21.4493 29.278 21.4496H27.0726V23.7403C27.0729 23.9135 27.0403 24.0851 26.9767 24.2452C26.913 24.4053 26.8197 24.5508 26.7019 24.6733C26.5841 24.7959 26.4442 24.893 26.2901 24.9593C26.1361 25.0255 25.9711 25.0596 25.8044 25.0594ZM19.7265 17.2616C19.684 17.2616 19.6433 17.279 19.6131 17.3101C19.583 17.3412 19.5659 17.3835 19.5656 17.4276V20.1364C19.5659 20.1806 19.583 20.2228 19.6131 20.2539C19.6433 20.285 19.684 20.3025 19.7265 20.3025H22.4827C22.6293 20.3028 22.7698 20.3635 22.8734 20.4712C22.9771 20.5789 23.0354 20.7249 23.0357 20.8772V23.7427C23.0357 23.7864 23.0525 23.8284 23.0822 23.8593C23.112 23.8902 23.1523 23.9076 23.1944 23.9076H25.801C25.8436 23.9076 25.8845 23.8902 25.9148 23.8591C25.9451 23.828 25.9625 23.7858 25.9631 23.7415V20.8808C25.9634 20.7284 26.0217 20.5824 26.1254 20.4747C26.229 20.367 26.3695 20.3063 26.5161 20.306H29.2734C29.3155 20.306 29.3559 20.2887 29.3856 20.2577C29.4154 20.2268 29.4321 20.1849 29.4321 20.1411V17.4323C29.4318 17.3882 29.4147 17.3459 29.3846 17.3148C29.3544 17.2837 29.3136 17.2663 29.2711 17.2663H26.5161C26.3696 17.2663 26.2291 17.2059 26.1254 17.0984C26.0218 16.9908 25.9634 16.8449 25.9631 16.6927V13.8226C25.9631 13.8005 25.9589 13.7788 25.9507 13.7585C25.9425 13.7382 25.9305 13.7197 25.9155 13.7043C25.9004 13.6888 25.8825 13.6767 25.8628 13.6684C25.8432 13.6602 25.8222 13.6562 25.801 13.6565H23.1944C23.152 13.6565 23.1114 13.674 23.0814 13.7051C23.0514 13.7363 23.0346 13.7785 23.0346 13.8226V16.688C23.0343 16.8402 22.9759 16.9861 22.8722 17.0936C22.7685 17.2012 22.628 17.2616 22.4816 17.2616H19.7265Z" fill="black"/>
<path d="M38.8714 15.1617H36.9947C36.7367 15.161 36.4894 15.0543 36.307 14.8647C36.1245 14.6751 36.0218 14.4181 36.0212 14.15V12.5683H34.5003C34.242 12.5683 33.9943 12.4617 33.8115 12.272C33.6288 12.0823 33.5259 11.825 33.5256 11.5566V9.60625C33.5259 9.33783 33.6288 9.08051 33.8115 8.89081C33.9943 8.70112 34.242 8.59457 34.5003 8.59457H36.0257V7.01168C36.0263 6.74335 36.1292 6.48621 36.3119 6.29659C36.4946 6.10696 36.7421 6.00031 37.0004 6H38.8759C39.1341 6.00031 39.3817 6.10696 39.5644 6.29659C39.7471 6.48621 39.85 6.74335 39.8506 7.01168V8.59457H41.3715C41.6295 8.59519 41.8768 8.70198 42.0592 8.89157C42.2416 9.08116 42.3444 9.33813 42.345 9.60625V11.5566C42.345 11.8245 42.2427 12.0815 42.0607 12.2711C41.8786 12.4608 41.6315 12.5677 41.3737 12.5683H39.8506V14.15C39.8503 14.2832 39.8247 14.4151 39.7753 14.5381C39.726 14.6611 39.6537 14.7728 39.5628 14.8667C39.4718 14.9607 39.364 15.0351 39.2453 15.0857C39.1267 15.1363 38.9997 15.1621 38.8714 15.1617ZM34.5003 9.55208L34.447 11.5542L36.4813 11.6084C36.6034 11.6084 36.7206 11.6588 36.807 11.7484C36.8935 11.838 36.9423 11.9597 36.9426 12.0866V14.1476L38.8692 14.2018L38.9224 12.0819C38.9227 11.9549 38.9714 11.8333 39.0579 11.7437C39.1444 11.654 39.2615 11.6037 39.3837 11.6037H41.3669L41.4168 9.60154L39.3837 9.54736C39.2613 9.54736 39.144 9.49686 39.0575 9.40697C38.971 9.31707 38.9224 9.19515 38.9224 9.06802V7.00697L36.9958 6.95397L36.9426 9.06802C36.9426 9.19515 36.8939 9.31707 36.8074 9.40697C36.7209 9.49686 36.6036 9.54736 36.4813 9.54736L34.5003 9.55208Z" fill="black"/>
<path d="M12.793 16.3689H11.0749C10.8288 16.3685 10.5929 16.2668 10.4189 16.086C10.2449 15.9052 10.147 15.66 10.1467 15.4043V13.9969H8.79356C8.54708 13.9963 8.31089 13.8941 8.13671 13.7129C7.96253 13.5317 7.86456 13.2861 7.86426 13.0299V11.2457C7.86456 10.9897 7.9626 10.7444 8.13685 10.5635C8.31109 10.3827 8.54729 10.2811 8.79356 10.2811H10.1467V8.87487C10.1467 8.61874 10.2446 8.37309 10.4189 8.19198C10.5932 8.01087 10.8296 7.90912 11.076 7.90912H12.793C13.0396 7.90912 13.276 8.01083 13.4505 8.19191C13.625 8.37299 13.7231 8.61863 13.7234 8.87487V10.2811H15.0754C15.3218 10.2811 15.5581 10.3826 15.7326 10.5635C15.907 10.7443 16.0053 10.9896 16.0059 11.2457V13.0323C16.0056 13.2882 15.9076 13.5336 15.7333 13.7144C15.5591 13.8953 15.3228 13.9969 15.0766 13.9969H13.7234V15.4019C13.7228 15.6582 13.6246 15.9038 13.4502 16.085C13.2759 16.2662 13.0396 16.3682 12.793 16.3689ZM8.79356 11.2386L8.78675 13.0299L10.608 13.0394C10.7303 13.0394 10.8476 13.0899 10.9341 13.1798C11.0206 13.2697 11.0692 13.3916 11.0692 13.5187V15.4031L12.793 15.4172L12.8021 13.5246C12.8021 13.4617 12.814 13.3993 12.8372 13.3412C12.8603 13.283 12.8943 13.2302 12.9371 13.1857C12.98 13.1411 13.0308 13.1058 13.0868 13.0817C13.1428 13.0577 13.2027 13.0453 13.2633 13.0453H15.0766L15.0845 11.2516L13.2633 11.2445C13.141 11.2445 13.0236 11.194 12.9371 11.1041C12.8506 11.0142 12.8021 10.8923 12.8021 10.7651V8.88076L11.076 8.87251L11.0692 10.7651C11.0692 10.8923 11.0206 11.0142 10.9341 11.1041C10.8476 11.194 10.7303 11.2445 10.608 11.2445L8.79356 11.2386Z" fill="black"/>
</g>
<defs>
<clipPath id="clip0_108_436">
<rect width="37" height="37" fill="white" transform="translate(6 6)"/>
</clipPath>
</defs>
</svg>
