<svg width="48" height="48" viewBox="0 0 48 48" fill="none" xmlns="http://www.w3.org/2000/svg">
<g clip-path="url(#clip0_108_406)">
<path d="M35.9532 10.169H12.0466C11.6306 10.1966 11.2135 10.1373 10.8211 9.99473C10.4287 9.8522 10.0692 9.62948 9.76503 9.34036C9.46083 9.05123 9.21835 8.70185 9.05257 8.31383C8.8868 7.92581 8.80127 7.5074 8.80127 7.0845C8.80127 6.6616 8.8868 6.24319 9.05257 5.85517C9.21835 5.46714 9.46083 5.11777 9.76503 4.82864C10.0692 4.53952 10.4287 4.31679 10.8211 4.17426C11.2135 4.03173 11.6306 3.97241 12.0466 3.99999H35.9532C36.3692 3.97241 36.7863 4.03173 37.1787 4.17426C37.5712 4.31679 37.9306 4.53952 38.2348 4.82864C38.539 5.11777 38.7815 5.46714 38.9472 5.85517C39.113 6.24319 39.1986 6.6616 39.1986 7.0845C39.1986 7.5074 39.113 7.92581 38.9472 8.31383C38.7815 8.70185 38.539 9.05123 38.2348 9.34036C37.9306 9.62948 37.5712 9.8522 37.1787 9.99473C36.7863 10.1373 36.3692 10.1966 35.9532 10.169ZM12.0466 5.94671C11.9002 5.94671 11.7552 5.97597 11.6199 6.03282C11.4846 6.08967 11.3617 6.17299 11.2582 6.27804C11.1547 6.38308 11.0725 6.50778 11.0165 6.64502C10.9605 6.78227 10.9316 6.92937 10.9316 7.07792C10.9316 7.22647 10.9605 7.37357 11.0165 7.51082C11.0725 7.64806 11.1547 7.77276 11.2582 7.87781C11.3617 7.98285 11.4846 8.06617 11.6199 8.12302C11.7552 8.17987 11.9002 8.20913 12.0466 8.20913H35.9532C36.2489 8.20913 36.5325 8.08995 36.7416 7.87781C36.9507 7.66566 37.0682 7.37794 37.0682 7.07792C37.0682 6.77791 36.9507 6.49018 36.7416 6.27804C36.5325 6.06589 36.2489 5.94671 35.9532 5.94671H12.0466Z" fill="#314559"/>
<path d="M16.7528 7.47255C16.6268 7.47255 16.5021 7.44737 16.3857 7.39845C16.2693 7.34954 16.1635 7.27784 16.0745 7.18746C15.9854 7.09707 15.9147 6.98977 15.8665 6.87167C15.8183 6.75358 15.7935 6.62701 15.7935 6.49918V5.34167C15.8209 5.10133 15.9345 4.87963 16.1126 4.71871C16.2907 4.55779 16.5208 4.46887 16.7593 4.46887C16.9978 4.46887 17.2279 4.55779 17.406 4.71871C17.5841 4.87963 17.6977 5.10133 17.7252 5.34167V6.52549C17.7184 6.78135 17.6125 7.0242 17.4305 7.20145C17.2486 7.3787 17.0051 7.4761 16.7528 7.47255Z" fill="#314559"/>
<path d="M24.0128 7.47253C23.8869 7.47253 23.7621 7.44735 23.6457 7.39844C23.5293 7.34952 23.4236 7.27782 23.3345 7.18744C23.2454 7.09705 23.1747 6.98975 23.1265 6.87166C23.0783 6.75356 23.0535 6.62699 23.0535 6.49917V5.34165C23.0535 5.0835 23.1545 4.83592 23.3345 4.65338C23.5144 4.47084 23.7584 4.36829 24.0128 4.36829C24.2673 4.36829 24.5113 4.47084 24.6912 4.65338C24.8712 4.83592 24.9722 5.0835 24.9722 5.34165V6.52548C24.9655 6.77904 24.8614 7.01991 24.6822 7.1968C24.503 7.37369 24.2629 7.47262 24.0128 7.47253Z" fill="#314559"/>
<path d="M31.2343 7.47253C30.9798 7.47253 30.7358 7.36998 30.5559 7.18744C30.376 7.0049 30.2749 6.75732 30.2749 6.49917V5.34165C30.2749 5.0835 30.376 4.83592 30.5559 4.65338C30.7358 4.47084 30.9798 4.36829 31.2343 4.36829C31.4899 4.36826 31.7353 4.4704 31.9173 4.65257C32.0993 4.83474 32.2032 5.0823 32.2066 5.34165V6.52548C32.1966 6.78022 32.0897 7.02112 31.9084 7.19767C31.7272 7.37423 31.4856 7.47273 31.2343 7.47253Z" fill="#314559"/>
<path d="M26.3336 44H13.3691C12.2111 43.9829 11.1057 43.5067 10.2892 42.6735C9.47276 41.8402 9.01004 40.7159 9 39.5409V7.07793C9.02749 6.8376 9.14107 6.61589 9.31915 6.45497C9.49723 6.29405 9.72739 6.20514 9.96586 6.20514C10.2043 6.20514 10.4345 6.29405 10.6126 6.45497C10.7906 6.61589 10.9042 6.8376 10.9317 7.07793V39.5409C10.9317 40.212 11.1936 40.8557 11.66 41.3314C12.1264 41.8071 12.7596 42.0761 13.4209 42.0796H26.3855C26.6399 42.0796 26.8839 42.1821 27.0639 42.3647C27.2438 42.5472 27.3449 42.7948 27.3449 43.0529C27.3399 43.1825 27.3097 43.3098 27.2562 43.4276C27.2026 43.5453 27.1267 43.6512 27.0328 43.7392C26.9389 43.8272 26.8288 43.8955 26.7088 43.9402C26.5888 43.985 26.4613 44.0053 26.3336 44Z" fill="#314559"/>
<path d="M34.579 44H21.6144C21.3576 43.9966 21.1122 43.8915 20.9306 43.7073C20.749 43.523 20.6454 43.274 20.6421 43.0135C20.6455 42.7541 20.7494 42.5065 20.9314 42.3244C21.1134 42.1422 21.3588 42.0401 21.6144 42.0401H34.579C35.2349 42.0368 35.8636 41.7737 36.331 41.3068C36.7985 40.8399 37.0676 40.2063 37.0812 39.5409V12.2867C37.0812 12.0286 37.1822 11.781 37.3621 11.5984C37.5421 11.4159 37.7861 11.3134 38.0405 11.3134C38.295 11.3134 38.539 11.4159 38.7189 11.5984C38.8988 11.781 38.9999 12.0286 38.9999 12.2867V39.5409C38.9897 40.7249 38.5198 41.857 37.6922 42.6917C36.8646 43.5265 35.746 43.9966 34.579 44Z" fill="#314559"/>
<path d="M34.1513 15.9961H13.8488C13.5932 15.9961 13.3478 15.894 13.1658 15.7118C12.9838 15.5296 12.8799 15.2821 12.8765 15.0227C12.8798 14.7621 12.9833 14.5132 13.165 14.3289C13.3466 14.1446 13.592 14.0396 13.8488 14.0362H34.1513C34.4082 14.0396 34.6535 14.1446 34.8351 14.3289C35.0168 14.5132 35.1203 14.7621 35.1237 15.0227C35.1202 15.2821 35.0163 15.5296 34.8343 15.7118C34.6523 15.894 34.407 15.9961 34.1513 15.9961Z" fill="#314559"/>
<path d="M34.1513 37.4364H13.8488C13.592 37.433 13.3466 37.3279 13.165 37.1437C12.9833 36.9594 12.8798 36.7104 12.8765 36.4499C12.8799 36.1905 12.9838 35.9429 13.1658 35.7608C13.3478 35.5786 13.5932 35.4765 13.8488 35.4765H34.1513C34.407 35.4765 34.6523 35.5786 34.8343 35.7608C35.0163 35.9429 35.1202 36.1905 35.1237 36.4499C35.1203 36.7104 35.0168 36.9594 34.8351 37.1437C34.6535 37.3279 34.4082 37.433 34.1513 37.4364Z" fill="#314559"/>
<path d="M32.2325 21.3496H15.7675C15.513 21.3496 15.269 21.247 15.0891 21.0645C14.9092 20.8819 14.8081 20.6343 14.8081 20.3762C14.8081 20.118 14.9092 19.8705 15.0891 19.6879C15.269 19.5054 15.513 19.4028 15.7675 19.4028H32.2325C32.4869 19.4028 32.7309 19.5054 32.9109 19.6879C33.0908 19.8705 33.1919 20.118 33.1919 20.3762C33.1919 20.6343 33.0908 20.8819 32.9109 21.0645C32.7309 21.247 32.4869 21.3496 32.2325 21.3496Z" fill="#314559"/>
<path d="M32.2325 26.7162H15.7675C15.5306 26.6883 15.3121 26.5731 15.1535 26.3924C14.9949 26.2117 14.9072 25.9782 14.9072 25.7363C14.9072 25.4943 14.9949 25.2608 15.1535 25.0801C15.3121 24.8995 15.5306 24.7842 15.7675 24.7563H32.2325C32.4694 24.7842 32.6879 24.8995 32.8465 25.0801C33.0051 25.2608 33.0927 25.4943 33.0927 25.7363C33.0927 25.9782 33.0051 26.2117 32.8465 26.3924C32.6879 26.5731 32.4694 26.6883 32.2325 26.7162Z" fill="#314559"/>
<path d="M32.2325 32.0697H15.7675C15.513 32.0697 15.269 31.9672 15.0891 31.7846C14.9092 31.6021 14.8081 31.3545 14.8081 31.0964C14.8081 30.8382 14.9092 30.5906 15.0891 30.4081C15.269 30.2255 15.513 30.123 15.7675 30.123H32.2325C32.4869 30.123 32.7309 30.2255 32.9109 30.4081C33.0908 30.5906 33.1919 30.8382 33.1919 31.0964C33.1919 31.3545 33.0908 31.6021 32.9109 31.7846C32.7309 31.9672 32.4869 32.0697 32.2325 32.0697Z" fill="#314559"/>
</g>
<defs>
<clipPath id="clip0_108_406">
<rect width="30" height="40" fill="white" transform="translate(9 4)"/>
</clipPath>
</defs>
</svg>
