<svg width="31" height="31" viewBox="0 0 31 31" fill="none" xmlns="http://www.w3.org/2000/svg">
<path d="M27.9998 15.5513H6.74976V8.56402C6.74537 8.11386 6.86417 7.67107 7.09331 7.28357C7.32245 6.89606 7.65319 6.5786 8.04976 6.36553C8.48827 6.12789 8.98798 6.02722 9.48431 6.07653C9.23168 6.8416 9.19579 7.66167 9.38062 8.44589C9.56544 9.2301 9.96376 9.94784 10.5314 10.5196L11.8572 11.8453C11.9732 11.9614 12.111 12.0535 12.2626 12.1163C12.4143 12.1791 12.5768 12.2115 12.741 12.2115C12.9051 12.2115 13.0677 12.1791 13.2193 12.1163C13.3709 12.0535 13.5087 11.9614 13.6248 11.8453L18.0437 7.42632C18.1598 7.31028 18.2519 7.1725 18.3147 7.02086C18.3776 6.86921 18.4099 6.70668 18.4099 6.54253C18.4099 6.37838 18.3776 6.21585 18.3147 6.0642C18.2519 5.91256 18.1598 5.77478 18.0437 5.65874L16.718 4.33306C15.9802 3.59852 15.0042 3.15174 13.966 3.07323C12.9279 2.99473 11.8958 3.28967 11.0559 3.90489C10.2986 3.60913 9.4805 3.50286 8.67277 3.59532C7.86505 3.68778 7.09214 3.97617 6.42128 4.43541C5.75041 4.89465 5.2019 5.51084 4.82344 6.23038C4.44498 6.94992 4.24805 7.75102 4.24976 8.56402V15.5513H2.99976C2.66824 15.5513 2.35029 15.683 2.11587 15.9174C1.88145 16.1519 1.74976 16.4698 1.74976 16.8013C1.74976 17.1328 1.88145 17.4508 2.11587 17.6852C2.35029 17.9196 2.66824 18.0513 2.99976 18.0513H4.24976V21.8013C4.25214 22.5743 4.49372 23.3276 4.94135 23.9578C5.38897 24.5879 6.02068 25.0641 6.74976 25.3209V26.8013C6.74976 27.1328 6.88145 27.4508 7.11587 27.6852C7.35029 27.9196 7.66824 28.0513 7.99976 28.0513C8.33128 28.0513 8.64922 27.9196 8.88364 27.6852C9.11806 27.4508 9.24976 27.1328 9.24976 26.8013V25.5513H21.7498V26.8013C21.7498 27.1328 21.8815 27.4508 22.1159 27.6852C22.3503 27.9196 22.6682 28.0513 22.9998 28.0513C23.3313 28.0513 23.6492 27.9196 23.8836 27.6852C24.1181 27.4508 24.2498 27.1328 24.2498 26.8013V25.321C24.9788 25.0642 25.6106 24.588 26.0582 23.9578C26.5058 23.3276 26.7474 22.5743 26.7498 21.8013V18.0513H27.9998C28.3313 18.0513 28.6492 17.9196 28.8836 17.6852C29.1181 17.4508 29.2498 17.1328 29.2498 16.8013C29.2498 16.4698 29.1181 16.1519 28.8836 15.9174C28.6492 15.683 28.3313 15.5513 27.9998 15.5513ZM12.2991 6.10063C12.651 5.74965 13.1277 5.55254 13.6248 5.55254C14.1218 5.55254 14.5985 5.74965 14.9504 6.10063L15.3923 6.54253L12.741 9.19389L12.2991 8.75201C11.9479 8.40019 11.7507 7.92341 11.7507 7.42633C11.7507 6.92924 11.9479 6.45245 12.2991 6.10063V6.10063ZM24.2498 21.8013C24.2495 22.1328 24.1178 22.4506 23.8834 22.685C23.649 22.9193 23.3312 23.0511 22.9998 23.0513H7.99976C7.6683 23.0511 7.35049 22.9193 7.11612 22.685C6.88175 22.4506 6.74998 22.1328 6.74976 21.8013V18.0513H24.2498V21.8013Z" fill="#8A8A8A"/>
</svg>
