<svg width="27" height="27" viewBox="0 0 27 27" fill="none" xmlns="http://www.w3.org/2000/svg">
<path d="M22.1666 4.34302H4.83325C3.9713 4.34302 3.14465 4.68543 2.53515 5.29492C1.92566 5.90441 1.58325 6.73106 1.58325 7.59302V21.6763C1.58325 21.9637 1.69739 22.2392 1.90055 22.4424C2.10372 22.6455 2.37927 22.7597 2.66659 22.7597H6.99992C7.17835 22.7588 7.35379 22.7138 7.51066 22.6287C7.66752 22.5437 7.80095 22.4212 7.89908 22.2722L9.75159 19.5097H17.2483L19.1007 22.2722C19.1989 22.4212 19.3323 22.5437 19.4892 22.6287C19.646 22.7138 19.8215 22.7588 19.9999 22.7597H24.3333C24.6206 22.7597 24.8961 22.6455 25.0993 22.4424C25.3024 22.2392 25.4166 21.9637 25.4166 21.6763V7.59302C25.4166 6.73106 25.0742 5.90441 24.4647 5.29492C23.8552 4.68543 23.0285 4.34302 22.1666 4.34302ZM23.2499 20.593H20.5849L18.7324 17.8847C18.6407 17.7256 18.5101 17.5924 18.3528 17.4977C18.1955 17.4029 18.0167 17.3497 17.8333 17.343H9.16658C8.98815 17.3439 8.81271 17.3889 8.65585 17.474C8.49898 17.559 8.36556 17.6815 8.26742 17.8305L6.41492 20.593H3.74992V15.1763H23.2499V20.593ZM8.08325 13.0097V11.9264C8.08325 11.639 8.19739 11.3635 8.40055 11.1603C8.60372 10.9572 8.87927 10.843 9.16658 10.843H11.3333C11.6206 10.843 11.8961 10.9572 12.0993 11.1603C12.3024 11.3635 12.4166 11.639 12.4166 11.9264V13.0097H8.08325ZM14.5833 13.0097V11.9264C14.5833 11.639 14.6974 11.3635 14.9006 11.1603C15.1037 10.9572 15.3793 10.843 15.6666 10.843H17.8333C18.1206 10.843 18.3961 10.9572 18.5993 11.1603C18.8024 11.3635 18.9166 11.639 18.9166 11.9264V13.0097H14.5833ZM23.2499 13.0097H21.0833V11.9264C21.0833 11.0644 20.7408 10.2377 20.1313 9.62825C19.5219 9.01876 18.6952 8.67635 17.8333 8.67635H15.6666C14.8649 8.68113 14.0932 8.98208 13.4999 9.52135C12.9066 8.98208 12.135 8.68113 11.3333 8.67635H9.16658C8.30463 8.67635 7.47798 9.01876 6.86849 9.62825C6.25899 10.2377 5.91658 11.0644 5.91658 11.9264V13.0097H3.74992V7.59302C3.74992 7.3057 3.86405 7.03015 4.06722 6.82699C4.27038 6.62382 4.54593 6.50968 4.83325 6.50968H22.1666C22.4539 6.50968 22.7295 6.62382 22.9326 6.82699C23.1358 7.03015 23.2499 7.3057 23.2499 7.59302V13.0097Z" fill="#8A8A8A"/>
</svg>
