<svg width="31" height="31" viewBox="0 0 31 31" fill="none" xmlns="http://www.w3.org/2000/svg">
<path d="M2.375 25.8641H28.625M25.8125 25.8641V14.0913C25.8125 13.9606 25.7852 13.8315 25.7324 13.712C25.6795 13.5926 25.6023 13.4855 25.5056 13.3976L16.13 4.87395C15.9574 4.71705 15.7326 4.63012 15.4993 4.63013C15.2661 4.63013 15.0412 4.71708 14.8687 4.87399L5.49431 13.3976C5.39767 13.4855 5.32046 13.5926 5.26763 13.712C5.21479 13.8315 5.1875 13.9606 5.1875 14.0912V25.8641M18.3118 25.8631V19.3006C18.3118 19.0519 18.213 18.8135 18.0372 18.6377C17.8614 18.4618 17.623 18.3631 17.3743 18.3631H13.6243C13.3757 18.3631 13.1372 18.4618 12.9614 18.6377C12.7856 18.8135 12.6868 19.0519 12.6868 19.3006V25.8631" stroke="#8A8A8A" stroke-width="2.3" stroke-linecap="round" stroke-linejoin="round"/>
</svg>
