<svg width="97" height="97" viewBox="0 0 97 97" fill="none" xmlns="http://www.w3.org/2000/svg">
<g filter="url(#filter0_b_462_4922)">
<ellipse cx="48.1111" cy="48.1105" rx="28.239" ry="28.4527" fill="black" fill-opacity="0.24"/>
<path d="M75.8501 48.1105C75.8501 63.552 63.4274 76.0633 48.1111 76.0633C32.7948 76.0633 20.3721 63.552 20.3721 48.1105C20.3721 32.6691 32.7948 20.1578 48.1111 20.1578C63.4274 20.1578 75.8501 32.6691 75.8501 48.1105Z" stroke="#B2B2B2"/>
</g>
<path d="M85.2631 48.1105C85.2631 68.6926 68.6281 85.375 48.111 85.375C27.5939 85.375 10.959 68.6926 10.959 48.1105C10.959 27.5285 27.5939 10.846 48.111 10.846C68.6281 10.846 85.2631 27.5285 85.2631 48.1105Z" stroke="#FBFBFB" stroke-opacity="0.6"/>
<circle cx="48.111" cy="48.111" r="47.611" stroke="white" stroke-opacity="0.8"/>
<path d="M54.5138 53.4947L57.3327 56.312C57.4641 56.4481 57.5368 56.6304 57.5352 56.8197C57.5336 57.0089 57.4577 57.1899 57.3239 57.3237C57.1901 57.4575 57.0091 57.5334 56.8198 57.535C56.6306 57.5367 56.4483 57.4639 56.3122 57.3325L53.4934 54.5136C51.6514 56.0918 49.2697 56.8952 46.848 56.7553C44.4264 56.6153 42.1532 55.5428 40.5052 53.7629C38.8573 51.9829 37.9629 49.6339 38.0096 47.2087C38.0562 44.7835 39.0404 42.4706 40.7556 40.7554C42.4708 39.0403 44.7837 38.0561 47.2089 38.0094C49.6341 37.9627 51.9831 38.8571 53.7631 40.5051C55.543 42.153 56.6155 44.4263 56.7554 46.8479C56.8954 49.2695 56.092 51.6512 54.5138 53.4932V53.4947ZM47.3896 55.3277C49.4949 55.3277 51.5141 54.4913 53.0028 53.0026C54.4915 51.5139 55.3279 49.4948 55.3279 47.3894C55.3279 45.284 54.4915 43.2649 53.0028 41.7762C51.5141 40.2874 49.4949 39.4511 47.3896 39.4511C45.2842 39.4511 43.2651 40.2874 41.7763 41.7762C40.2876 43.2649 39.4513 45.284 39.4513 47.3894C39.4513 49.4948 40.2876 51.5139 41.7763 53.0026C43.2651 54.4913 45.2842 55.3277 47.3896 55.3277ZM46.6679 46.6677V44.5027C46.6679 44.3113 46.7439 44.1278 46.8793 43.9924C47.0146 43.8571 47.1982 43.7811 47.3896 43.7811C47.581 43.7811 47.7645 43.8571 47.8999 43.9924C48.0352 44.1278 48.1112 44.3113 48.1112 44.5027V46.6677H50.2762C50.4676 46.6677 50.6512 46.7437 50.7865 46.8791C50.9219 47.0144 50.9979 47.198 50.9979 47.3894C50.9979 47.5808 50.9219 47.7643 50.7865 47.8997C50.6512 48.035 50.4676 48.111 50.2762 48.111H48.1112V50.276C48.1112 50.4674 48.0352 50.651 47.8999 50.7863C47.7645 50.9217 47.581 50.9977 47.3896 50.9977C47.1982 50.9977 47.0146 50.9217 46.8793 50.7863C46.7439 50.651 46.6679 50.4674 46.6679 50.276V48.111H44.5029C44.3115 48.111 44.128 48.035 43.9926 47.8997C43.8573 47.7643 43.7812 47.5808 43.7812 47.3894C43.7812 47.198 43.8573 47.0144 43.9926 46.8791C44.128 46.7437 44.3115 46.6677 44.5029 46.6677H46.6679Z" fill="#E6F6F4"/>
<defs>
<filter id="filter0_b_462_4922" x="15.8721" y="15.6578" width="64.4785" height="64.9054" filterUnits="userSpaceOnUse" color-interpolation-filters="sRGB">
<feFlood flood-opacity="0" result="BackgroundImageFix"/>
<feGaussianBlur in="BackgroundImageFix" stdDeviation="2"/>
<feComposite in2="SourceAlpha" operator="in" result="effect1_backgroundBlur_462_4922"/>
<feBlend mode="normal" in="SourceGraphic" in2="effect1_backgroundBlur_462_4922" result="shape"/>
</filter>
</defs>
</svg>
