<svg width="200" height="200" viewBox="0 0 200 200" fill="none" xmlns="http://www.w3.org/2000/svg">
<g filter="url(#filter0_b_363_332)">
<ellipse cx="100" cy="99.9992" rx="58.6956" ry="59.1398" fill="black" fill-opacity="0.24"/>
<path d="M158.196 99.9992C158.196 132.389 132.137 158.639 100 158.639C67.8633 158.639 41.8047 132.389 41.8047 99.9992C41.8047 67.6097 67.8633 41.3594 100 41.3594C132.137 41.3594 158.196 67.6097 158.196 99.9992Z" stroke="#B2B2B2"/>
</g>
<path d="M177.762 99.999C177.762 143.076 142.946 177.994 100.001 177.994C57.0564 177.994 22.2402 143.076 22.2402 99.999C22.2402 56.9224 57.0564 22.0044 100.001 22.0044C142.946 22.0044 177.762 56.9224 177.762 99.999Z" stroke="#646464" stroke-opacity="0.2"/>
<circle cx="100" cy="100" r="99.5" stroke="#646464" stroke-opacity="0.2"/>
<path fill-rule="evenodd" clip-rule="evenodd" d="M88.334 94.9999C88.334 91.9057 89.5631 88.9383 91.7511 86.7503C93.939 84.5624 96.9065 83.3333 100.001 83.3333C103.095 83.3333 106.062 84.5624 108.25 86.7503C110.438 88.9383 111.667 91.9057 111.667 94.9999V105C111.667 106.532 111.366 108.049 110.779 109.465C110.193 110.88 109.334 112.166 108.25 113.249C107.167 114.333 105.881 115.192 104.465 115.779C103.05 116.365 101.533 116.667 100.001 116.667C98.4686 116.667 96.9515 116.365 95.536 115.779C94.1205 115.192 92.8344 114.333 91.7511 113.249C90.6677 112.166 89.8084 110.88 89.2221 109.465C88.6358 108.049 88.334 106.532 88.334 105V94.9999ZM101.667 91.6666C101.667 91.2246 101.492 90.8006 101.179 90.4881C100.867 90.1755 100.443 89.9999 100.001 89.9999C99.5586 89.9999 99.1347 90.1755 98.8221 90.4881C98.5096 90.8006 98.334 91.2246 98.334 91.6666V98.3333C98.334 98.7753 98.5096 99.1992 98.8221 99.5118C99.1347 99.8243 99.5586 99.9999 100.001 99.9999C100.443 99.9999 100.867 99.8243 101.179 99.5118C101.492 99.1992 101.667 98.7753 101.667 98.3333V91.6666Z" fill="#E6F6F4"/>
<defs>
<filter id="filter0_b_363_332" x="37.3047" y="36.8594" width="125.391" height="126.28" filterUnits="userSpaceOnUse" color-interpolation-filters="sRGB">
<feFlood flood-opacity="0" result="BackgroundImageFix"/>
<feGaussianBlur in="BackgroundImageFix" stdDeviation="2"/>
<feComposite in2="SourceAlpha" operator="in" result="effect1_backgroundBlur_363_332"/>
<feBlend mode="normal" in="SourceGraphic" in2="effect1_backgroundBlur_363_332" result="shape"/>
</filter>
</defs>
</svg>
