<svg width="40" height="40" viewBox="0 0 40 40" fill="none" xmlns="http://www.w3.org/2000/svg">
<path d="M29.0297 23.1906L24.0297 20.6906C23.9313 20.6416 23.8217 20.6194 23.7119 20.6262C23.6022 20.6331 23.4962 20.6688 23.4047 20.7297L20.8047 22.4641C19.3754 21.7787 18.2229 20.6261 17.5375 19.1969L19.2718 16.5969C19.3328 16.5053 19.3684 16.3994 19.3753 16.2896C19.3822 16.1799 19.36 16.0703 19.3109 15.9719L16.8109 10.9719C16.7591 10.8675 16.679 10.7797 16.5799 10.7184C16.4808 10.6571 16.3665 10.6248 16.25 10.625C14.7581 10.625 13.3274 11.2176 12.2725 12.2725C11.2176 13.3274 10.625 14.7582 10.625 16.25C10.6287 19.7298 12.0127 23.0661 14.4733 25.5267C16.9339 27.9873 20.2702 29.3713 23.75 29.375C25.2418 29.375 26.6726 28.7824 27.7274 27.7275C28.7823 26.6726 29.375 25.2418 29.375 23.75C29.3751 23.6339 29.3428 23.5201 29.2818 23.4212C29.2208 23.3224 29.1335 23.2426 29.0297 23.1906ZM23.75 28.125C20.6015 28.1217 17.583 26.8695 15.3567 24.6432C13.1305 22.417 11.8783 19.3984 11.875 16.25C11.8748 15.155 12.2852 14.0998 13.0252 13.2926C13.7652 12.4855 14.781 11.9853 15.8718 11.8906L18.0281 16.2047L16.3093 18.7891C16.2521 18.8743 16.2167 18.9724 16.2063 19.0746C16.196 19.1768 16.211 19.28 16.25 19.375C17.0804 21.3491 18.6508 22.9196 20.625 23.75C20.7201 23.7895 20.8235 23.8049 20.926 23.7948C21.0285 23.7847 21.1269 23.7495 21.2125 23.6922L23.7969 21.9734L28.1109 24.1297C28.0159 25.2206 27.5152 26.2362 26.7078 26.9759C25.9004 27.7156 24.845 28.1256 23.75 28.125ZM20 4.375C17.2798 4.37449 14.6066 5.08414 12.2448 6.43373C9.88307 7.78333 7.91455 9.72612 6.53399 12.0699C5.15343 14.4137 4.40867 17.0774 4.37339 19.7973C4.3381 22.5173 5.0135 25.1993 6.33279 27.5781L4.47341 33.1547C4.36324 33.4851 4.34725 33.8396 4.42724 34.1785C4.50723 34.5175 4.68003 34.8274 4.92628 35.0737C5.17254 35.3199 5.48251 35.4927 5.82145 35.5727C6.1604 35.6527 6.51492 35.6367 6.84529 35.5266L12.4218 33.6672C14.5079 34.823 16.8308 35.486 19.2126 35.6054C21.5945 35.7248 23.9721 35.2974 26.1632 34.3559C28.3543 33.4144 30.3009 31.9838 31.8537 30.1738C33.4065 28.3638 34.5244 26.2223 35.1217 23.9135C35.719 21.6046 35.7799 19.1897 35.2997 16.8537C34.8195 14.5177 33.8109 12.3227 32.3513 10.4367C30.8916 8.55073 29.0196 7.0239 26.8787 5.9732C24.7378 4.92249 22.3848 4.3758 20 4.375ZM20 34.375C17.4726 34.3758 14.9897 33.7102 12.8015 32.4453C12.7064 32.3906 12.5988 32.3615 12.489 32.3609C12.4215 32.3609 12.3545 32.372 12.2906 32.3938L6.44997 34.3406C6.33985 34.3773 6.22168 34.3827 6.1087 34.356C5.99571 34.3294 5.89239 34.2718 5.81031 34.1897C5.72822 34.1076 5.67062 34.0043 5.64396 33.8913C5.6173 33.7783 5.62262 33.6601 5.65935 33.55L7.60622 27.7094C7.63431 27.6254 7.64423 27.5364 7.63534 27.4484C7.62645 27.3603 7.59895 27.2751 7.55466 27.1984C5.96982 24.459 5.33334 21.2731 5.74396 18.135C6.15457 14.9968 7.58933 12.082 9.82565 9.84249C12.062 7.60302 14.9748 6.16416 18.1124 5.74914C21.2499 5.33411 24.4367 5.96611 27.1784 7.5471C29.9201 9.12809 32.0634 11.5697 33.2758 14.4931C34.4882 17.4165 34.702 20.6583 33.8839 23.7156C33.0659 26.773 31.2617 29.4748 28.7514 31.4022C26.2411 33.3295 23.1648 34.3744 20 34.375Z" fill="#161616"/>
</svg>
