<svg width="32" height="32" viewBox="0 0 32 32" fill="none" xmlns="http://www.w3.org/2000/svg">
<path d="M25.0297 19.1906L20.0297 16.6906C19.9313 16.6416 19.8217 16.6194 19.7119 16.6262C19.6022 16.6331 19.4962 16.6688 19.4047 16.7297L16.8047 18.4641C15.3754 17.7787 14.2229 16.6261 13.5375 15.1969L15.2718 12.5969C15.3328 12.5053 15.3684 12.3994 15.3753 12.2896C15.3822 12.1799 15.36 12.0703 15.3109 11.9719L12.8109 6.97188C12.7591 6.86751 12.679 6.77972 12.5799 6.71843C12.4808 6.65713 12.3665 6.62477 12.25 6.625C10.7581 6.625 9.32739 7.21763 8.2725 8.27252C7.21761 9.32742 6.62497 10.7582 6.62497 12.25C6.6287 15.7298 8.0127 19.0661 10.4733 21.5267C12.9339 23.9873 16.2702 25.3713 19.75 25.375C21.2418 25.375 22.6726 24.7824 23.7274 23.7275C24.7823 22.6726 25.375 21.2418 25.375 19.75C25.3751 19.6339 25.3428 19.5201 25.2818 19.4212C25.2208 19.3224 25.1335 19.2426 25.0297 19.1906ZM19.75 24.125C16.6015 24.1217 13.583 22.8695 11.3567 20.6432C9.13046 18.417 7.87828 15.3984 7.87497 12.25C7.87479 11.155 8.28522 10.0998 9.02521 9.29265C9.76521 8.48554 10.781 7.98526 11.8718 7.89062L14.0281 12.2047L12.3093 14.7891C12.2521 14.8743 12.2167 14.9724 12.2063 15.0746C12.196 15.1768 12.211 15.28 12.25 15.375C13.0804 17.3491 14.6508 18.9196 16.625 19.75C16.7201 19.7895 16.8235 19.8049 16.926 19.7948C17.0285 19.7847 17.1269 19.7495 17.2125 19.6922L19.7969 17.9734L24.1109 20.1297C24.0159 21.2206 23.5152 22.2362 22.7078 22.9759C21.9004 23.7156 20.845 24.1256 19.75 24.125ZM16 0.375C13.2798 0.374495 10.6066 1.08414 8.24484 2.43373C5.88307 3.78333 3.91455 5.72612 2.53399 8.06993C1.15343 10.4137 0.408674 13.0774 0.373385 15.7973C0.338097 18.5173 1.0135 21.1993 2.33279 23.5781L0.473412 29.1547C0.363238 29.4851 0.347249 29.8396 0.427238 30.1785C0.507226 30.5175 0.680031 30.8274 0.926285 31.0737C1.17254 31.3199 1.48251 31.4927 1.82145 31.5727C2.1604 31.6527 2.51492 31.6367 2.84529 31.5266L8.42185 29.6672C10.5079 30.823 12.8308 31.486 15.2126 31.6054C17.5945 31.7248 19.9721 31.2974 22.1632 30.3559C24.3543 29.4144 26.3009 27.9838 27.8537 26.1738C29.4065 24.3638 30.5244 22.2223 31.1217 19.9135C31.719 17.6046 31.7799 15.1897 31.2997 12.8537C30.8195 10.5177 29.8109 8.32267 28.3513 6.4367C26.8916 4.55073 25.0196 3.0239 22.8787 1.9732C20.7378 0.922494 18.3848 0.3758 16 0.375ZM16 30.375C13.4726 30.3758 10.9897 29.7102 8.80154 28.4453C8.70645 28.3906 8.59876 28.3615 8.48904 28.3609C8.42154 28.3609 8.35449 28.372 8.2906 28.3938L2.44997 30.3406C2.33985 30.3773 2.22168 30.3827 2.1087 30.356C1.99571 30.3294 1.89239 30.2718 1.81031 30.1897C1.72822 30.1076 1.67062 30.0043 1.64396 29.8913C1.6173 29.7783 1.62262 29.6601 1.65935 29.55L3.60622 23.7094C3.63431 23.6254 3.64423 23.5364 3.63534 23.4484C3.62645 23.3603 3.59895 23.2751 3.55466 23.1984C1.96982 20.459 1.33334 17.2731 1.74396 14.135C2.15457 10.9968 3.58933 8.08196 5.82565 5.84249C8.06198 3.60302 10.9748 2.16416 14.1124 1.74914C17.2499 1.33411 20.4367 1.96611 23.1784 3.5471C25.9201 5.12809 28.0634 7.56968 29.2758 10.4931C30.4882 13.4165 30.702 16.6583 29.8839 19.7156C29.0659 22.773 27.2617 25.4748 24.7514 27.4022C22.2411 29.3295 19.1648 30.3744 16 30.375Z" fill="white"/>
</svg>
