<svg width="34" height="34" viewBox="0 0 34 34" fill="none" xmlns="http://www.w3.org/2000/svg">
<path d="M31.1667 16.9999H7.08335V9.08099C7.07838 8.5708 7.21303 8.06898 7.47271 7.62981C7.7324 7.19064 8.10725 6.83085 8.55669 6.58937C9.05367 6.32004 9.62001 6.20594 10.1825 6.26183C9.8962 7.12891 9.85553 8.05833 10.065 8.9471C10.2745 9.83588 10.7259 10.6493 11.3693 11.2973L12.8718 12.7997C13.0033 12.9313 13.1594 13.0357 13.3313 13.1069C13.5032 13.1781 13.6874 13.2148 13.8734 13.2148C14.0594 13.2148 14.2436 13.1781 14.4155 13.1069C14.5874 13.0357 14.7435 12.9313 14.875 12.7997L19.8832 7.79159C20.0147 7.66008 20.1191 7.50393 20.1903 7.33207C20.2615 7.16021 20.2982 6.976 20.2982 6.78997C20.2982 6.60393 20.2615 6.41972 20.1903 6.24786C20.1191 6.076 20.0147 5.91985 19.8832 5.78834L18.3807 4.28589C17.5445 3.45342 16.4384 2.94706 15.2618 2.85809C14.0852 2.76912 12.9155 3.10339 11.9636 3.80064C11.1054 3.46545 10.1782 3.345 9.26277 3.44979C8.34735 3.55458 7.47139 3.88142 6.71108 4.4019C5.95076 4.92237 5.32911 5.62071 4.9002 6.43619C4.47128 7.25167 4.24808 8.15959 4.25002 9.08099V16.9999H2.83335C2.45763 16.9999 2.0973 17.1492 1.83162 17.4149C1.56594 17.6805 1.41669 18.0409 1.41669 18.4166C1.41669 18.7923 1.56594 19.1526 1.83162 19.4183C2.0973 19.684 2.45763 19.8333 2.83335 19.8333H4.25002V24.0833C4.25272 24.9593 4.52652 25.813 5.03382 26.5272C5.54113 27.2414 6.25707 27.7811 7.08335 28.0721V29.7499C7.08335 30.1257 7.23261 30.486 7.49829 30.7517C7.76396 31.0173 8.1243 31.1666 8.50002 31.1666C8.87574 31.1666 9.23608 31.0173 9.50175 30.7517C9.76743 30.486 9.91669 30.1257 9.91669 29.7499V28.3333H24.0834V29.7499C24.0834 30.1257 24.2326 30.486 24.4983 30.7517C24.764 31.0173 25.1243 31.1666 25.5 31.1666C25.8757 31.1666 26.2361 31.0173 26.5018 30.7517C26.7674 30.486 26.9167 30.1257 26.9167 29.7499V28.0722C27.743 27.7812 28.4589 27.2415 28.9662 26.5273C29.4735 25.813 29.7473 24.9593 29.75 24.0833V19.8333H31.1667C31.5424 19.8333 31.9027 19.684 32.1684 19.4183C32.4341 19.1526 32.5834 18.7923 32.5834 18.4166C32.5834 18.0409 32.4341 17.6805 32.1684 17.4149C31.9027 17.1492 31.5424 16.9999 31.1667 16.9999ZM13.3726 6.28915C13.7714 5.89136 14.3117 5.66798 14.875 5.66798C15.4383 5.66798 15.9786 5.89136 16.3775 6.28915L16.8783 6.78997L13.8734 9.79484L13.3726 9.29404C12.9746 8.89532 12.7511 8.35497 12.7511 7.7916C12.7511 7.22823 12.9746 6.68788 13.3726 6.28915ZM26.9167 24.0833C26.9164 24.4589 26.7671 24.8191 26.5015 25.0847C26.2359 25.3503 25.8757 25.4997 25.5 25.4999H8.50002C8.12437 25.4997 7.76419 25.3503 7.49856 25.0847C7.23294 24.8191 7.08361 24.4589 7.08335 24.0833V19.8333H26.9167V24.0833Z" fill="#E6E6E6"/>
</svg>
