<svg width="34" height="34" viewBox="0 0 34 34" fill="none" xmlns="http://www.w3.org/2000/svg">
<path d="M28.3334 4.95837H5.66669C4.53952 4.95837 3.45851 5.40614 2.66148 6.20317C1.86445 7.0002 1.41669 8.0812 1.41669 9.20837V27.625C1.41669 28.0008 1.56594 28.3611 1.83162 28.6268C2.0973 28.8925 2.45763 29.0417 2.83335 29.0417H8.50002C8.73336 29.0405 8.96278 28.9817 9.16791 28.8705C9.37304 28.7592 9.54752 28.5991 9.67585 28.4042L12.0984 24.7917H21.9017L24.3242 28.4042C24.4525 28.5991 24.627 28.7592 24.8321 28.8705C25.0373 28.9817 25.2667 29.0405 25.5 29.0417H31.1667C31.5424 29.0417 31.9027 28.8925 32.1684 28.6268C32.4341 28.3611 32.5834 28.0008 32.5834 27.625V9.20837C32.5834 8.0812 32.1356 7.0002 31.3386 6.20317C30.5415 5.40614 29.4605 4.95837 28.3334 4.95837ZM29.75 26.2084H26.265L23.8425 22.6667C23.7226 22.4587 23.5518 22.2845 23.3461 22.1606C23.1404 22.0367 22.9066 21.9671 22.6667 21.9584H11.3334C11.1 21.9596 10.8706 22.0184 10.6655 22.1296C10.4603 22.2408 10.2859 22.401 10.1575 22.5959L7.73502 26.2084H4.25002V19.125H29.75V26.2084ZM9.91669 16.2917V14.875C9.91669 14.4993 10.0659 14.139 10.3316 13.8733C10.5973 13.6076 10.9576 13.4584 11.3334 13.4584H14.1667C14.5424 13.4584 14.9027 13.6076 15.1684 13.8733C15.4341 14.139 15.5834 14.4993 15.5834 14.875V16.2917H9.91669ZM18.4167 16.2917V14.875C18.4167 14.4993 18.5659 14.139 18.8316 13.8733C19.0973 13.6076 19.4576 13.4584 19.8334 13.4584H22.6667C23.0424 13.4584 23.4027 13.6076 23.6684 13.8733C23.9341 14.139 24.0834 14.4993 24.0834 14.875V16.2917H18.4167ZM29.75 16.2917H26.9167V14.875C26.9167 13.7479 26.4689 12.6669 25.6719 11.8698C24.8749 11.0728 23.7939 10.625 22.6667 10.625H19.8334C18.7849 10.6313 17.7758 11.0248 17 11.73C16.2242 11.0248 15.2151 10.6313 14.1667 10.625H11.3334C10.2062 10.625 9.12518 11.0728 8.32815 11.8698C7.53112 12.6669 7.08335 13.7479 7.08335 14.875V16.2917H4.25002V9.20837C4.25002 8.83265 4.39928 8.47232 4.66495 8.20664C4.93063 7.94096 5.29096 7.79171 5.66669 7.79171H28.3334C28.7091 7.79171 29.0694 7.94096 29.3351 8.20664C29.6008 8.47232 29.75 8.83265 29.75 9.20837V16.2917Z" fill="#E6E6E6"/>
</svg>
