<svg width="88" height="88" viewBox="0 0 88 88" fill="none" xmlns="http://www.w3.org/2000/svg">
<path d="M31.3989 59.7504H26.2616H20.5535M31.3989 59.7504V48.0671C31.3989 47.2018 30.6974 46.5003 29.832 46.5003H22.1204C21.255 46.5003 20.5535 47.2018 20.5535 48.0671V59.7504M31.3989 59.7504H39.5358C40.4011 59.7504 41.1026 59.0489 41.1026 58.1835V35.5545M20.5535 59.7504H12.9874C12.122 59.7504 11.4205 59.0489 11.4205 58.1835V35.5545M11.4205 35.5545L25.1279 21.1881C25.7452 20.5412 26.7779 20.5412 27.3952 21.1881L36.1556 30.3697L41.1026 35.5545M11.4205 35.5545L4 42.4676M41.1026 35.5545L48.5232 42.4676" stroke="#FAFAFA" stroke-width="1.2" stroke-linecap="round"/>
<path d="M68.4353 46H64.0412H59.1588M68.4353 46V36.2335C68.4353 35.3682 67.7338 34.6667 66.8684 34.6667H60.7257C59.8603 34.6667 59.1588 35.3682 59.1588 36.2335V46M68.4353 46H75.1684C76.0338 46 76.7353 45.2985 76.7353 44.4331V25.3043M59.1588 46H52.9139C52.0486 46 51.3471 45.2985 51.3471 44.4331V25.3043M51.3471 25.3043L62.9075 13.1881C63.5248 12.5412 64.5575 12.5412 65.1748 13.1881L72.5039 20.8696L76.7353 25.3043M51.3471 25.3043L45 31.2174M76.7353 25.3043L83.0823 31.2174" stroke="#FAFAFA" stroke-width="1.2" stroke-linecap="round"/>
<path d="M51.4242 76H43.2822H34.2355H21.3276C20.4622 76 19.7607 75.2985 19.7607 74.4331V37.6522L42.1485 14.1881C42.7658 13.5412 43.7985 13.5412 44.4158 14.1881L58.9631 29.4348L66.8036 37.6522V74.4331C66.8036 75.2985 66.1021 76 65.2367 76H51.4242Z" fill="white"/>
<path d="M51.4242 76H43.2822H34.2355H21.3276C20.4622 76 19.7607 75.2985 19.7607 74.4331V37.6522L42.1485 14.1881C42.7658 13.5412 43.7985 13.5412 44.4158 14.1881L58.9631 29.4348L66.8036 37.6522V74.4331C66.8036 75.2985 66.1021 76 65.2367 76H51.4242Z" fill="#010101"/>
<path d="M51.4242 76H43.2822H34.2355M51.4242 76V56.5669C51.4242 55.7015 50.7227 55 49.8573 55H35.8023C34.937 55 34.2355 55.7015 34.2355 56.5669V76M51.4242 76H65.2367C66.1021 76 66.8036 75.2985 66.8036 74.4331V37.6522M34.2355 76H21.3276C20.4622 76 19.7607 75.2985 19.7607 74.4331V37.6522M19.7607 37.6522L42.1485 14.1881C42.7658 13.5412 43.7985 13.5412 44.4158 14.1881L58.9631 29.4348L66.8036 37.6522M19.7607 37.6522L8 48.6087M66.8036 37.6522L78.5644 48.6087" stroke="#FAFAFA" stroke-width="1.2" stroke-linecap="round"/>
</svg>
