<svg width="40" height="40" viewBox="0 0 40 40" fill="none" xmlns="http://www.w3.org/2000/svg">
<path d="M26.9176 5H13.0824C8.61819 5 5 8.61883 5 13.0824V26.9176C5 31.3818 8.61883 35 13.083 35H26.917C31.3812 35 35 31.3812 35 26.917V13.0824C35 8.61819 31.3818 5 26.9176 5Z" stroke="#161616" stroke-width="1.5" stroke-miterlimit="10"/>
<path d="M19.5 27C23.6421 27 27 23.6421 27 19.5C27 15.3579 23.6421 12 19.5 12C15.3579 12 12 15.3579 12 19.5C12 23.6421 15.3579 27 19.5 27Z" stroke="#161616" stroke-width="1.5" stroke-miterlimit="10"/>
<path d="M28.5 12C29.3284 12 30 11.5523 30 11C30 10.4477 29.3284 10 28.5 10C27.6716 10 27 10.4477 27 11C27 11.5523 27.6716 12 28.5 12Z" fill="#161616"/>
</svg>
