<svg width="200" height="200" viewBox="0 0 200 200" fill="none" xmlns="http://www.w3.org/2000/svg">
<g filter="url(#filter0_b_196_5831)">
<ellipse cx="99.9998" cy="99.9992" rx="58.6956" ry="59.1398" fill="black" fill-opacity="0.24"/>
<path d="M158.195 99.9992C158.195 132.389 132.137 158.639 99.9998 158.639C67.8628 158.639 41.8042 132.389 41.8042 99.9992C41.8042 67.6097 67.8628 41.3594 99.9998 41.3594C132.137 41.3594 158.195 67.6097 158.195 99.9992Z" stroke="#B2B2B2"/>
</g>
<path d="M177.761 99.999C177.761 143.076 142.945 177.994 100 177.994C57.0554 177.994 22.2393 143.076 22.2393 99.999C22.2393 56.9224 57.0554 22.0044 100 22.0044C142.945 22.0044 177.761 56.9224 177.761 99.999Z" stroke="#646464" stroke-opacity="0.2"/>
<circle cx="100" cy="100" r="99.5" stroke="#646464" stroke-opacity="0.2"/>
<path fill-rule="evenodd" clip-rule="evenodd" d="M88.3335 94.9999C88.3335 91.9057 89.5627 88.9383 91.7506 86.7503C93.9385 84.5624 96.906 83.3333 100 83.3333C103.094 83.3333 106.062 84.5624 108.25 86.7503C110.438 88.9383 111.667 91.9057 111.667 94.9999V105C111.667 106.532 111.365 108.049 110.779 109.465C110.192 110.88 109.333 112.166 108.25 113.249C107.166 114.333 105.88 115.192 104.465 115.779C103.049 116.365 101.532 116.667 100 116.667C98.4681 116.667 96.951 116.365 95.5355 115.779C94.1201 115.192 92.8339 114.333 91.7506 113.249C90.6672 112.166 89.8079 110.88 89.2216 109.465C88.6353 108.049 88.3335 106.532 88.3335 105V94.9999ZM101.667 91.6666C101.667 91.2246 101.491 90.8006 101.179 90.4881C100.866 90.1755 100.442 89.9999 100 89.9999C99.5581 89.9999 99.1342 90.1755 98.8217 90.4881C98.5091 90.8006 98.3335 91.2246 98.3335 91.6666V98.3333C98.3335 98.7753 98.5091 99.1992 98.8217 99.5118C99.1342 99.8243 99.5581 99.9999 100 99.9999C100.442 99.9999 100.866 99.8243 101.179 99.5118C101.491 99.1992 101.667 98.7753 101.667 98.3333V91.6666Z" fill="#E6F6F4"/>
<defs>
<filter id="filter0_b_196_5831" x="37.3042" y="36.8594" width="125.391" height="126.28" filterUnits="userSpaceOnUse" color-interpolation-filters="sRGB">
<feFlood flood-opacity="0" result="BackgroundImageFix"/>
<feGaussianBlur in="BackgroundImageFix" stdDeviation="2"/>
<feComposite in2="SourceAlpha" operator="in" result="effect1_backgroundBlur_196_5831"/>
<feBlend mode="normal" in="SourceGraphic" in2="effect1_backgroundBlur_196_5831" result="shape"/>
</filter>
</defs>
</svg>
