<svg width="22" height="22" viewBox="0 0 22 22" fill="none" xmlns="http://www.w3.org/2000/svg">
<path d="M8.83033 3.16013C8.46453 3.16013 8.16799 2.86359 8.16799 2.49779C8.16799 2.13199 8.46453 1.83545 8.83033 1.83545H11.9526C12.3184 1.83545 12.615 2.13199 12.615 2.49779C12.615 2.86359 12.3184 3.16013 11.9526 3.16013H8.83033Z" fill="#999999"/>
<path d="M5.76621 3.55921C6.02487 3.81787 6.02487 4.23724 5.76621 4.4959L3.55842 6.70369C3.29976 6.96235 2.88039 6.96235 2.62173 6.70369C2.36307 6.44503 2.36307 6.02566 2.62173 5.767L4.82952 3.55921C5.08818 3.30055 5.50755 3.30055 5.76621 3.55921Z" fill="#999999"/>
<path fill-rule="evenodd" clip-rule="evenodd" d="M10.5966 4.46911C6.45085 4.46911 3.09007 7.82989 3.09007 11.9756C3.09007 16.1213 6.45085 19.4821 10.5966 19.4821C14.7423 19.4821 18.1031 16.1213 18.1031 11.9756C18.1031 7.82989 14.7423 4.46911 10.5966 4.46911ZM15.0041 7.74616C15.1408 7.57038 15.1252 7.32031 14.9678 7.16284C14.8103 7.00538 14.5602 6.98981 14.3845 7.12653L11.5815 9.3066L9.74853 10.6159C9.41579 10.8535 9.21832 11.2373 9.21832 11.6462C9.21832 12.3454 9.78519 12.9123 10.4845 12.9123C10.8934 12.9123 11.2771 12.7148 11.5147 12.3821L12.824 10.5491L15.0041 7.74616Z" fill="#999999"/>
</svg>
