<svg width="88" height="88" viewBox="0 0 88 88" fill="none" xmlns="http://www.w3.org/2000/svg">
<path d="M20.2727 41.1743H15V30.5657C15 27.9136 17.6364 25.2614 20.2727 25.2614H67.7273C70.3636 25.2614 73 27.9136 73 30.5657V41.1743H67.7273M20.2727 41.1743V67.6957C20.2727 70.3479 22.9091 73 25.5455 73H62.4545C65.0909 73 67.7273 70.3479 67.7273 67.6957V41.1743M20.2727 41.1743H67.7273M44 25.2614V73M44 25.2614C40.4857 17.7479 33.1909 5.63558 26.8636 12.0007C20.5364 18.3659 34.7727 25.2614 44 25.2614ZM44 25.2614C44 13.3268 55.8636 5.37037 61.1364 10.6747C67.7273 17.305 54.5455 25.2614 44 25.2614Z" stroke="#FAFAFA" stroke-width="1.2" stroke-linecap="round" stroke-linejoin="round"/>
</svg>
