<svg width="88" height="89" viewBox="0 0 88 89" fill="none" xmlns="http://www.w3.org/2000/svg">
<path d="M85.1646 52C85.1646 67.1312 72.8681 79.4 57.6966 79.4C42.525 79.4 30.2286 67.1312 30.2286 52C30.2286 36.8687 42.525 24.5999 57.6966 24.5999C72.8681 24.5999 85.1646 36.8687 85.1646 52Z" stroke="#FAFAFA" stroke-width="1.19981"/>
<path d="M61.4833 52.0005C61.4833 54.084 59.7898 55.7756 57.6976 55.7756C55.6055 55.7756 53.9119 54.084 53.9119 52.0005C53.9119 49.9169 55.6055 48.2254 57.6976 48.2254C59.7898 48.2254 61.4833 49.9169 61.4833 52.0005Z" stroke="#FAFAFA" stroke-width="1.19981"/>
<path d="M57.6982 29.25V31.875" stroke="#FAFAFA" stroke-width="1.19981" stroke-linecap="round"/>
<path d="M57.6982 37.1255V48.5005" stroke="#FAFAFA" stroke-width="1.19981" stroke-linecap="round"/>
<path d="M38.4009 40.6255L40.5911 42.0803" stroke="#FAFAFA" stroke-width="1.19981" stroke-linecap="round"/>
<path d="M77.4304 40.6255L75.2402 42.0804" stroke="#FAFAFA" stroke-width="1.19981" stroke-linecap="round"/>
<path d="M57.6982 24.8752V17.4377" stroke="#FAFAFA" stroke-width="1.19981" stroke-linecap="round"/>
<path d="M40.5315 61.6252L38.4006 63.1654" stroke="#FAFAFA" stroke-width="1.19981" stroke-linecap="round"/>
<path d="M75.2395 61.6252L77.3705 63.1652" stroke="#FAFAFA" stroke-width="1.19981" stroke-linecap="round"/>
<path d="M61.2063 53.7502L66.9076 57.2502" stroke="#FAFAFA" stroke-width="1.19981" stroke-linecap="round"/>
<path d="M57.6982 72.125V74.75" stroke="#FAFAFA" stroke-width="1.19981" stroke-linecap="round"/>
<rect x="44.264" y="10.5999" width="26.8681" height="6.67518" rx="3.33759" stroke="#FAFAFA" stroke-width="1.19981"/>
<path d="M2 27.5H32.6993" stroke="#FAFAFA" stroke-width="1.19981" stroke-linecap="round"/>
<path d="M10.771 39.7498H26.5592" stroke="#FAFAFA" stroke-width="1.19981" stroke-linecap="round"/>
<path d="M16.9116 52.0005H24.8057" stroke="#FAFAFA" stroke-width="1.19981" stroke-linecap="round"/>
</svg>
