<svg width="34" height="34" viewBox="0 0 34 34" fill="none" xmlns="http://www.w3.org/2000/svg">
<path d="M2.125 28.6876H31.875M28.6875 28.6876V15.3451C28.6875 15.197 28.6566 15.0506 28.5967 14.9152C28.5368 14.7799 28.4493 14.6585 28.3397 14.5589L17.714 4.89876C17.5184 4.72095 17.2636 4.62243 16.9992 4.62244C16.7349 4.62245 16.4801 4.72099 16.2845 4.89881L5.66022 14.5589C5.5507 14.6585 5.46319 14.7799 5.40331 14.9152C5.34343 15.0506 5.3125 15.197 5.3125 15.345V28.6876M20.1867 28.6864V21.2489C20.1867 20.9671 20.0748 20.6969 19.8755 20.4976C19.6763 20.2984 19.406 20.1864 19.1242 20.1864H14.8742C14.5924 20.1864 14.3222 20.2984 14.1229 20.4976C13.9237 20.6969 13.8117 20.9671 13.8117 21.2489V28.6864" stroke="#E6E6E6" stroke-width="2.3" stroke-linecap="round" stroke-linejoin="round"/>
</svg>
